<svg xmlns="http://www.w3.org/2000/svg" viewBox="0 0 214.95 35.31"><title>Trek_Bicycle</title><polygon points="56.34 5.87 10.11 5.86 8.47 10.36 24.41 10.37 17.5 29.42 33.25 29.41 40.14 10.38 54.7 10.37 56.34 5.87" style="fill:#231f20"/><polygon points="172.37 5.86 155.75 5.86 147.21 29.44 163.84 29.44 172.37 5.86" style="fill:#231f20"/><polygon points="169.34 16.84 179.21 29.44 198.4 29.44 187.36 16.97 206.47 5.86 186.99 5.86 169.34 16.84" style="fill:#231f20"/><path d="M150.47,10.38l1.64-4.52H109.55L103.7,22.06a3,3,0,0,0,.34,3.1l2.55,2.89a3.62,3.62,0,0,0,2.88,1.39h34.1L145.2,25H121.37a1.62,1.62,0,0,1-1.75-2.18l1.07-3h26.36l1.64-4.51H122.31l1.79-4.91Z" style="fill:#231f20"/><path d="M101.59,5.86H59.29L50.75,29.44H66.94L73.8,10.38H85.88a1.41,1.41,0,0,1,1.52,1.89c-.3,1-.72,2.12-1,2.84a2.91,2.91,0,0,1-2.81,1.74H72.26l9.85,12.58h18.65L92.38,20h5a4.31,4.31,0,0,0,4.31-2.82c.71-1.77,2.26-6.13,2.77-7.57C105.31,7.27,104,5.86,101.59,5.86Z" style="fill:#231f20"/></svg>